<svg width="56" height="56" viewBox="0 0 56 56" fill="none" xmlns="http://www.w3.org/2000/svg">
<g id="socials">
<rect id="Rectangle 1" width="56" height="56" rx="28" fill="#2878B7"/>
<path id="Vector" d="M39.2002 29.0422V36.7642H34.68V29.5131C34.68 27.7238 34.0208 26.4996 32.4199 26.4996C31.1957 26.4996 30.4423 27.3471 30.1598 28.1005C30.0657 28.383 29.9715 28.7597 29.9715 29.2305V36.7642H25.4513C25.4513 36.7642 25.5455 24.522 25.4513 23.2978H29.9715V25.1812C30.5365 24.2395 31.6666 22.9211 34.0208 22.9211C36.9401 22.9211 39.2002 24.8987 39.2002 29.0422ZM20.7428 16.8C19.2361 16.8 18.2002 17.8359 18.2002 19.1543C18.2002 20.4727 19.1419 21.5086 20.6486 21.5086C22.2495 21.5086 23.1912 20.4727 23.1912 19.1543C23.2854 17.7418 22.3437 16.8 20.7428 16.8ZM18.4827 36.7642H23.0029V23.2978H18.4827V36.7642Z" fill="white"/>
</g>
</svg>
