<svg width="56" height="56" viewBox="0 0 56 56" fill="none" xmlns="http://www.w3.org/2000/svg">
<g id="socials">
<rect id="Rectangle 1" width="56" height="56" rx="28" fill="#55ACE3"/>
<path id="Vector" d="M42.8399 20.8599C41.8599 21.2799 40.7399 21.56 39.6199 21.7C40.7399 21 41.7199 19.88 42.1399 18.62C41.0199 19.32 39.8999 19.74 38.4999 20.02C37.5199 18.9 35.9799 18.2 34.4399 18.2C31.3599 18.2 28.8399 20.72 28.8399 23.8C28.8399 24.22 28.8399 24.6399 28.9799 25.0599C24.3599 24.7799 20.1599 22.5399 17.3599 19.1799C16.9399 20.0199 16.6599 20.9999 16.6599 21.9799C16.6599 23.9399 17.6399 25.62 19.1799 26.6C18.1999 26.6 17.3599 26.32 16.6599 25.9C16.6599 28.56 18.6199 30.9399 21.1399 31.3599C20.7199 31.4999 20.1599 31.5 19.5999 31.5C19.1799 31.5 18.8999 31.4999 18.4799 31.3599C19.1799 33.5999 21.2799 35.2799 23.7999 35.2799C21.8399 36.8199 19.4599 37.6599 16.7999 37.6599C16.3799 37.6599 15.9599 37.66 15.3999 37.52C17.9199 39.06 20.8599 40.04 24.0799 40.04C34.4399 40.04 40.0399 31.4999 40.0399 24.0799V23.3799C41.1599 22.9599 42.1399 21.9799 42.8399 20.8599Z" fill="white"/>
</g>
</svg>
