<svg width="28" height="80" viewBox="0 0 28 80" fill="none" xmlns="http://www.w3.org/2000/svg">
<path id="Vector 2" d="M5.27782 76.9057C4.57209 77.3395 4.35169 78.2633 4.78555 78.9691C5.21941 79.6748 6.14323 79.8952 6.84896 79.4613L5.27782 76.9057ZM2.15328 0.500769C1.32535 0.529366 0.67736 1.22372 0.705958 2.05165L1.17198 15.5436C1.20058 16.3715 1.89494 17.0195 2.72287 16.9909C3.5508 16.9623 4.19879 16.268 4.17019 15.44L3.75595 3.4472L15.7488 3.03296C16.5767 3.00436 17.2247 2.31 17.1961 1.48207C17.1675 0.654141 16.4732 0.00615004 15.6452 0.0347475L2.15328 0.500769ZM6.84896 79.4613C7.65203 78.9676 8.46727 78.4266 9.28657 77.8395L7.53915 75.4009C6.77618 75.9477 6.01969 76.4496 5.27782 76.9057L6.84896 79.4613ZM13.8137 74.1269C15.1961 72.8375 16.55 71.4173 17.8336 69.8717L15.5257 67.955C14.3271 69.3983 13.0613 70.7264 11.7675 71.933L13.8137 74.1269ZM21.2706 65.1245C22.2898 63.4942 23.2174 61.7617 24.0204 59.9316L21.2732 58.7262C20.5319 60.4158 19.6734 62.02 18.7268 63.5343L21.2706 65.1245ZM25.965 54.3732C26.4561 52.5139 26.8133 50.5767 27.0109 48.5658L24.0253 48.2724C23.8438 50.1192 23.5158 51.8984 23.0645 53.607L25.965 54.3732ZM27.1221 42.6741C27.0103 40.7829 26.7559 38.8407 26.3425 36.8504L23.4052 37.4605C23.7893 39.3097 24.0242 41.1072 24.1273 42.8511L27.1221 42.6741ZM24.775 31.2081C24.1637 29.4482 23.4278 27.657 22.5578 25.8362L19.8509 27.1296C20.6746 28.8536 21.3677 30.5417 21.9411 32.1925L24.775 31.2081ZM19.803 20.7271C18.8491 19.1383 17.7925 17.5292 16.6276 15.9008L14.1877 17.6463C15.3079 19.2122 16.3201 20.7542 17.231 22.2714L19.803 20.7271ZM13.0992 11.3174C11.9266 9.89468 10.6706 8.45821 9.32749 7.00854L7.1268 9.0474C8.43214 10.4564 9.6499 11.8493 10.7842 13.2255L13.0992 11.3174ZM5.32753 2.90669C4.64643 2.24148 3.94686 1.57364 3.22848 0.903234L1.18165 3.09652C1.88373 3.75172 2.56686 4.40387 3.23139 5.0529L5.32753 2.90669Z" fill="#4B4B4F"/>
</svg>
