<svg width="79" height="26" viewBox="0 0 79 26" fill="none" xmlns="http://www.w3.org/2000/svg">
<path id="Vector 4" d="M3.40878 24.6446C3.02465 25.3786 2.11824 25.6622 1.38425 25.2781C0.650267 24.894 0.366653 23.9875 0.750783 23.2536L3.40878 24.6446ZM78.1681 22.5208C78.1967 23.3487 77.5488 24.0431 76.7208 24.0717L63.2289 24.5377C62.4009 24.5663 61.7066 23.9183 61.678 23.0904C61.6494 22.2624 62.2974 21.5681 63.1253 21.5395L75.1182 21.1252L74.7039 9.1324C74.6753 8.30447 75.3233 7.61011 76.1512 7.58152C76.9792 7.55292 77.6735 8.20091 77.7021 9.02884L78.1681 22.5208ZM0.750783 23.2536C1.2381 22.3224 1.78436 21.3717 2.38845 20.4132L4.92643 22.0128C4.36431 22.9047 3.8582 23.7859 3.40878 24.6446L0.750783 23.2536ZM6.27799 15.1468C7.65201 13.5435 9.18968 11.9753 10.8873 10.5007L12.8546 12.7656C11.2744 14.1382 9.8398 15.6009 8.55587 17.099L6.27799 15.1468ZM16.1632 6.59715C17.9869 5.4627 19.942 4.45213 22.0251 3.61132L23.1479 6.39325C21.2346 7.16555 19.4335 8.09593 17.7478 9.1445L16.1632 6.59715ZM28.335 1.70815C30.4244 1.28131 32.6111 1.02802 34.8915 0.980246L34.9543 3.97959C32.8567 4.02353 30.8499 4.25634 28.9355 4.64745L28.335 1.70815ZM41.4432 1.39843C43.509 1.70097 45.6358 2.17005 47.8218 2.82338L46.9628 5.69775C44.9112 5.08459 42.926 4.64759 41.0085 4.36676L41.4432 1.39843ZM53.9291 5.07526C55.826 5.90527 57.7618 6.87225 59.7356 7.98604L58.2613 10.5988C56.3714 9.53232 54.5262 8.61113 52.7265 7.82367L53.9291 5.07526ZM65.1907 11.3804C66.9006 12.5425 68.6369 13.8139 70.3991 15.2006L68.5439 17.5582C66.8339 16.2126 65.1539 14.9826 63.5044 13.8616L65.1907 11.3804ZM75.2979 19.2981C76.0911 20.0007 76.8893 20.7264 77.6925 21.4759L75.6456 23.6692C74.8611 22.9371 74.0822 22.2289 73.3089 21.544L75.2979 19.2981Z" fill="#4B4B4F"/>
</svg>
