<svg width="92" height="53" viewBox="0 0 92 53" fill="none" xmlns="http://www.w3.org/2000/svg">
<path id="Vector 3" d="M88.6652 12.5326C89.3399 13.0132 90.2765 12.8558 90.7572 12.1811C91.2378 11.5064 91.0804 10.5697 90.4057 10.0891L88.6652 12.5326ZM6.63984 51.4546C6.98908 52.2058 7.88118 52.5316 8.63239 52.1824L20.8742 46.4913C21.6254 46.142 21.9513 45.25 21.602 44.4987C21.2528 43.7475 20.3607 43.4216 19.6095 43.7709L8.72789 48.8297L3.66911 37.9481C3.31988 37.1969 2.42778 36.871 1.67657 37.2202C0.925348 37.5695 0.599479 38.4616 0.94872 39.2128L6.63984 51.4546ZM90.4057 10.0891C89.5972 9.5132 88.7431 8.94397 87.847 8.38727L86.2639 10.9355C87.1073 11.4595 87.9089 11.9939 88.6652 12.5326L90.4057 10.0891ZM82.4348 5.44823C80.6395 4.60202 78.7363 3.82414 76.7439 3.14561L75.7768 5.98545C77.6591 6.62649 79.4582 7.36179 81.1557 8.16191L82.4348 5.44823ZM70.8137 1.5018C68.8387 1.07776 66.8015 0.762659 64.717 0.581301L64.457 3.57001C66.4108 3.74 68.3245 4.03572 70.184 4.43496L70.8137 1.5018ZM58.5462 0.453014C56.5237 0.547234 54.4726 0.779497 52.4054 1.17002L52.9624 4.11788C54.8868 3.75432 56.7982 3.5377 58.6858 3.44976L58.5462 0.453014ZM46.424 2.74839C44.5232 3.39773 42.621 4.19388 40.7269 5.15136L42.0802 7.82874C43.8499 6.9342 45.6239 6.19194 47.3939 5.58731L46.424 2.74839ZM35.4088 8.29487C33.774 9.40809 32.1534 10.654 30.553 12.0417L32.5184 14.3083C34.0327 12.9951 35.561 11.8207 37.0973 10.7746L35.4088 8.29487ZM26.1363 16.2981C24.793 17.7297 23.469 19.2729 22.1682 20.9333L24.5297 22.7834C25.7777 21.1906 27.0437 19.7153 28.324 18.3509L26.1363 16.2981ZM18.5882 25.8952C17.5069 27.5193 16.4454 29.2346 15.4057 31.0449L18.0072 32.5389C19.0152 30.7837 20.0422 29.1247 21.0854 27.5577L18.5882 25.8952ZM12.5462 36.38C11.6711 38.1286 10.8144 39.9534 9.97779 41.8568L12.7242 43.0639C13.5415 41.2045 14.377 39.425 15.229 37.7227L12.5462 36.38ZM7.67081 47.4408C7.30637 48.3793 6.94642 49.3348 6.5911 50.3075L9.40898 51.3369C9.75751 50.3828 10.1104 49.4461 10.4674 48.5267L7.67081 47.4408Z" fill="#4B4B4F"/>
</svg>
