<svg width="57" height="79" viewBox="0 0 57 79" fill="none" xmlns="http://www.w3.org/2000/svg">
<path id="Vector 1" d="M4.46642 2.31583C4.64085 1.50598 4.12574 0.708058 3.31588 0.533627C2.50603 0.359197 1.70811 0.874311 1.53368 1.68417L4.46642 2.31583ZM56.5607 68.0607C57.1465 67.4749 57.1465 66.5251 56.5607 65.9393L47.0148 56.3934C46.429 55.8076 45.4792 55.8076 44.8934 56.3934C44.3077 56.9792 44.3077 57.9289 44.8934 58.5147L53.3787 67L44.8934 75.4853C44.3077 76.0711 44.3077 77.0208 44.8934 77.6066C45.4792 78.1924 46.429 78.1924 47.0148 77.6066L56.5607 68.0607ZM1.53368 1.68417C1.32086 2.67222 1.12588 3.70263 0.952194 4.76962L3.91322 5.25161C4.07893 4.23358 4.26455 3.25311 4.46642 2.31583L1.53368 1.68417ZM0.229453 11.0249C0.087483 13.0469 0.0263634 15.1479 0.0642058 17.2993L3.06374 17.2465C3.0275 15.1858 3.08604 13.1726 3.22208 11.2351L0.229453 11.0249ZM0.459282 23.5773C0.685003 25.6376 1.0109 27.7196 1.45188 29.8002L4.38669 29.1782C3.96765 27.2011 3.65698 25.2179 3.44144 23.2506L0.459282 23.5773ZM3.09577 35.8968C3.75463 37.8853 4.53527 39.8524 5.45148 41.7766L8.1601 40.4868C7.30068 38.6819 6.5657 36.831 5.94352 34.9532L3.09577 35.8968ZM8.56475 47.3139C9.71575 49.0633 11.0044 50.7527 12.4424 52.3624L14.6797 50.3638C13.3434 48.868 12.1441 47.2961 11.071 45.665L8.56475 47.3139ZM17.0305 56.7802C18.6226 58.0981 20.3476 59.3315 22.2137 60.4661L23.7723 57.9028C22.03 56.8434 20.4235 55.6943 18.9435 54.4693L17.0305 56.7802ZM27.8455 63.3871C29.7146 64.2059 31.6958 64.9384 33.7944 65.5757L34.666 62.7051C32.6769 62.1011 30.8068 61.4092 29.0494 60.6392L27.8455 63.3871ZM39.8916 67.0861C41.8783 67.4753 43.9545 67.7884 46.1235 68.0202L46.4422 65.0372C44.3561 64.8143 42.3661 64.5138 40.4683 64.142L39.8916 67.0861ZM52.3428 68.4485C53.3764 68.4827 54.4287 68.5 55.5 68.5V65.5C54.461 65.5 53.4418 65.4832 52.4419 65.4502L52.3428 68.4485Z" fill="#4B4B4F"/>
</svg>
