<svg width="66" height="57" viewBox="0 0 66 57" fill="none" xmlns="http://www.w3.org/2000/svg">
<path id="Vector 3" d="M65 2C65.5523 2 66 1.55229 66 1C66 0.447717 65.5523 8.6498e-07 65 -5.60761e-09L65 2ZM6.19717 55.6831C6.52653 56.1264 7.15291 56.2188 7.59625 55.8895L14.8208 50.5224C15.2642 50.1931 15.3566 49.5667 15.0272 49.1233C14.6979 48.68 14.0715 48.5876 13.6281 48.917L7.2063 53.6877L2.43556 47.2658C2.10621 46.8225 1.47983 46.7301 1.03649 47.0595C0.593152 47.3888 0.500749 48.0152 0.8301 48.4585L6.19717 55.6831ZM65 -5.60761e-09C63.9487 -1.61196e-06 62.8838 0.0123032 61.8081 0.0406858L61.8608 2.03999C62.9171 2.01212 63.9643 2 65 2L65 -5.60761e-09ZM55.4117 0.418194C53.3039 0.618929 51.1753 0.904733 49.0454 1.30195L49.4121 3.26805C51.4761 2.88311 53.5451 2.60501 55.6013 2.40919L55.4117 0.418194ZM42.7798 2.82115C40.7405 3.44028 38.7172 4.18742 36.7276 5.08639L37.5511 6.90897C39.4559 6.04833 41.3977 5.33091 43.3608 4.7349L42.7798 2.82115ZM31.0306 8.16468C29.2494 9.30148 27.5141 10.5901 25.8391 12.0492L27.1529 13.5573C28.7514 12.1647 30.4069 10.9353 32.1066 9.85059L31.0306 8.16468ZM21.2797 16.6406C19.9237 18.2139 18.6256 19.9299 17.3943 21.8008L19.0649 22.9003C20.2499 21.0997 21.4963 19.4528 22.7946 17.9463L21.2797 16.6406ZM14.1662 27.3796C13.2344 29.2144 12.3568 31.1676 11.5385 33.2466L13.3996 33.9791C14.1957 31.9563 15.0475 30.0611 15.9494 28.2853L14.1662 27.3796ZM9.4339 39.3144C8.83633 41.2802 8.28503 43.3414 7.78323 45.5026L9.73141 45.9549C10.2236 43.8352 10.7635 41.8172 11.3474 39.8961L9.4339 39.3144ZM6.51972 51.7637C6.33968 52.8022 6.16988 53.8612 6.01061 54.9408L7.9892 55.2327C8.14608 54.1693 8.31322 53.127 8.49033 52.1053L6.51972 51.7637Z" fill="#4B4B4F"/>
</svg>
