<svg width="29" height="58" viewBox="0 0 29 58" fill="none" xmlns="http://www.w3.org/2000/svg">
<path id="Vector 2" d="M27.4356 54.0934C28.2307 54.3258 28.687 55.1588 28.4546 55.954C28.2222 56.7491 27.3892 57.2054 26.594 56.973L27.4356 54.0934ZM14.9075 0.540223C15.7136 0.349465 16.5218 0.848351 16.7126 1.65451L19.8211 14.7917C20.0119 15.5979 19.513 16.4061 18.7069 16.5968C17.9007 16.7876 17.0925 16.2887 16.9018 15.4825L14.1386 3.80501L2.46104 6.5682C1.65487 6.75896 0.846705 6.26007 0.655947 5.45391C0.465187 4.64774 0.964072 3.83957 1.77024 3.64882L14.9075 0.540223ZM26.594 56.973C25.557 56.6699 24.4771 56.2905 23.3772 55.8325L24.5305 53.063C25.5305 53.4795 26.5064 53.8219 27.4356 54.0934L26.594 56.973ZM17.3895 52.59C15.5741 51.3535 13.8056 49.8839 12.1914 48.1659L14.3776 46.1116C15.8285 47.6556 17.4266 48.9855 19.0783 50.1106L17.3895 52.59ZM8.1301 42.6372C7.05459 40.7105 6.17869 38.5871 5.57397 36.2605L8.4775 35.5059C9.01597 37.5776 9.79445 39.4639 10.7496 41.1749L8.1301 42.6372ZM4.65267 29.4806C4.60663 27.3502 4.77033 25.0976 5.1746 22.7201L8.13215 23.223C7.75804 25.4231 7.61025 27.4855 7.65197 29.4158L4.65267 29.4806ZM6.81198 16.1809C7.46315 14.1887 8.27142 12.1219 9.25062 9.97857L11.9793 11.2252C11.0437 13.2732 10.2773 15.2351 9.66352 17.113L6.81198 16.1809ZM12.2838 4.06817C12.8165 3.12952 13.3805 2.17751 13.9765 1.21199L16.5293 2.78784C15.952 3.72302 15.4068 4.64339 14.8928 5.54907L12.2838 4.06817Z" fill="#4B4B4F"/>
</svg>
