<svg width="113" height="26" viewBox="0 0 113 26" fill="none" xmlns="http://www.w3.org/2000/svg">
<g id="_Client logo" clip-path="url(#clip0_76_78)">
<path id="Shape" d="M40.2577 9.24802V10.7215H40.3031C40.8381 9.9326 41.7263 9.00353 43.6948 9.00353C45.2264 9.00353 46.4012 9.77612 46.9047 10.9432H46.9502C47.3803 10.3531 47.8733 9.90652 48.4258 9.59031C49.0796 9.21542 49.8069 9.00027 50.723 9.00027C52.7965 9.00027 54.6322 10.3368 54.6322 13.7076V20.1002H51.4713V14.1542C51.4713 12.446 50.8489 11.4582 49.5552 11.4582C48.6076 11.4582 47.9187 12.0515 47.6565 12.7818C47.5656 13.0328 47.5236 13.3751 47.5236 13.6619V20.1035H44.3627V13.9129C44.3627 12.4623 43.7648 11.455 42.4885 11.455C41.4675 11.455 40.8276 12.2048 40.5654 12.847C40.4535 13.1208 40.4185 13.437 40.4185 13.7336V20.1002H37.2541V9.24802H40.2577ZM70.9474 9.24802V11.2952H71.0348C71.6152 9.73049 72.9929 9.00353 74.2027 9.00353C74.5069 9.00353 74.6748 9.02635 74.9195 9.07198V11.9146C74.6293 11.8755 74.3601 11.8364 73.9824 11.8364C72.6118 11.8364 71.6572 12.5796 71.4159 13.7434C71.3635 13.9847 71.346 14.2455 71.346 14.5454V20.1035H68.1011V9.24802H70.9474ZM79.3252 5.65234V9.06872H82.0666V11.8331H79.3252V15.9113C79.3252 17.2315 79.6854 17.8705 80.7553 17.8705C81.2589 17.8705 81.6295 17.8118 81.9512 17.7368L81.9931 20.0285C81.5631 20.1785 80.6469 20.3415 79.7169 20.3415C78.6224 20.3415 77.7098 19.9861 77.1538 19.4352C76.5175 18.8061 76.2238 17.7759 76.2238 16.309V5.65234H79.3252ZM35.0512 20.1002H31.9043V5.65234H35.0512V20.1002ZM26.6594 16.2242C26.6594 16.4231 26.6419 16.6317 26.5825 16.811C26.3377 17.564 25.502 18.1997 24.46 18.1997C23.5894 18.1997 22.897 17.7401 22.897 16.7654C22.897 15.2756 24.6593 14.8616 26.6629 14.8714V16.2242H26.6594ZM29.8028 13.6261C29.8028 11.1648 28.6769 9.00353 24.8691 9.00353C22.9145 9.00353 21.362 9.51533 20.5159 9.97172L21.1348 11.9472C21.9075 11.4908 23.1418 11.1159 24.3097 11.1159C26.2433 11.1127 26.558 12.1363 26.558 12.7915V12.948C22.3446 12.9415 19.6837 14.3009 19.6837 17.0718C19.6837 18.7637 21.0369 20.348 23.3936 20.348C24.8447 20.348 26.0545 19.8101 26.7818 18.9462H26.8517C26.8517 18.9462 27.3342 20.8207 29.9847 20.1035C29.8448 19.3211 29.7993 18.4899 29.7993 17.4891V13.6261H29.8028ZM3.87553 5.65234C4.20071 7.18124 5.12381 11.6212 5.12381 11.6212C5.51194 13.4468 5.86859 15.3603 6.13783 16.8729H6.18678C6.44903 15.2658 6.86163 13.7434 7.3022 11.8592L8.85819 5.65234H12.3023L13.7569 12.0189C14.1381 13.7891 14.4423 15.155 14.6835 16.8012H14.729C14.9912 15.1387 15.3339 13.7173 15.708 11.8983L17.1067 5.65234H20.411L16.3164 20.1002C13.708 20.6316 12.7079 19.6536 12.3513 18.1019C11.9946 16.5469 11.2953 13.5902 11.2953 13.5902C10.9352 11.97 10.6554 10.8291 10.4596 9.16652H10.4107C10.1309 10.8128 9.83724 11.9668 9.40366 13.587L7.68682 20.1035C5.02241 20.599 4.09931 19.8655 3.5888 17.8737C3.14823 16.1688 0.399902 5.6556 0.399902 5.6556H3.87553V5.65234ZM62.8562 16.2242C62.8562 16.4231 62.8388 16.6317 62.7793 16.811C62.5345 17.564 61.6989 18.1997 60.6569 18.1997C59.7862 18.1997 59.0939 17.7401 59.0939 16.7654C59.0939 15.2756 60.8562 14.8616 62.8597 14.8714V16.2242H62.8562ZM65.9997 13.6261C65.9997 11.1648 64.8738 9.00353 61.066 9.00353C59.1114 9.00353 57.5589 9.51533 56.7127 9.97172L57.3316 11.9472C58.1044 11.4908 59.3386 11.1159 60.5065 11.1159C62.4366 11.1127 62.7548 12.1363 62.7548 12.7915V12.948C58.5449 12.9415 55.884 14.3009 55.884 17.0718C55.884 18.7637 57.2407 20.348 59.5939 20.348C61.0415 20.348 62.2548 19.8101 62.9786 18.9462H63.052C63.052 18.9462 63.5346 20.8207 66.185 20.1035C66.0451 19.3211 65.9997 18.4899 65.9997 17.4891V13.6261Z" fill="#041E42"/>
<path id="Shape_2" d="M94.8231 15.1241C95.1333 15.6517 95.1124 16.2406 94.7813 16.5096L89.0583 20.4276C88.4623 20.7646 87.5701 20.3561 87.0647 19.5017C86.5558 18.6439 86.6464 17.6874 87.2424 17.3504L93.5788 14.4705C93.9762 14.3208 94.5129 14.5965 94.8231 15.1241ZM102.355 15.1241C102.669 14.5965 103.202 14.3242 103.599 14.4671L109.939 17.3469C110.535 17.6839 110.622 18.6405 110.117 19.4983C109.608 20.3527 108.712 20.7578 108.12 20.4242L102.397 16.5062C102.069 16.2406 102.045 15.6483 102.355 15.1241ZM98.5873 17.2482C99.2112 17.2482 99.7235 17.5614 99.7933 17.9733L100.41 24.7745C100.41 25.4485 99.6051 26 98.5908 26C97.5801 26 96.7714 25.4485 96.7714 24.7745L97.3849 17.9733C97.4546 17.5614 97.9669 17.2482 98.5873 17.2482ZM102.397 9.49385L108.12 5.5724C108.712 5.2354 109.608 5.64048 110.117 6.4983C110.622 7.35611 110.535 8.31265 109.939 8.64965L103.599 11.5329C103.202 11.6758 102.665 11.4035 102.355 10.8759C102.045 10.3483 102.069 9.75936 102.397 9.49385ZM93.5788 11.5329L87.2424 8.64965C86.6499 8.31265 86.5593 7.35611 87.0647 6.4983C87.5701 5.64048 88.4658 5.2354 89.0583 5.5724L94.7813 9.49385C95.1124 9.75596 95.1333 10.3483 94.8231 10.8759C94.5129 11.4035 93.9762 11.6758 93.5788 11.5329ZM97.3849 8.02671L96.7714 1.22545C96.7714 0.551453 97.5766 0 98.5908 0C99.6051 0 100.41 0.551453 100.41 1.22545L99.7933 8.02671C99.7235 8.43519 99.2112 8.75177 98.5873 8.75177C97.9669 8.75177 97.4546 8.43519 97.3849 8.02671ZM111.664 20.4004V20.2302H111.821C111.874 20.2302 111.908 20.2642 111.908 20.3153C111.908 20.3629 111.874 20.4004 111.821 20.4004H111.664ZM111.535 20.7101C111.535 20.7272 111.549 20.7442 111.57 20.7442H111.637C111.654 20.7442 111.671 20.7272 111.671 20.7101V20.5161H111.779L111.867 20.7203C111.874 20.734 111.884 20.7442 111.898 20.7442H111.978C112.003 20.7442 112.02 20.7203 112.009 20.6965C111.978 20.6352 111.947 20.5706 111.915 20.5059C111.968 20.4889 112.048 20.4378 112.048 20.3153C112.048 20.1859 111.94 20.111 111.832 20.111H111.57C111.553 20.111 111.535 20.128 111.535 20.1451V20.7101ZM111.253 20.4276C111.253 20.1519 111.483 19.9272 111.765 19.9272C112.048 19.9272 112.278 20.1485 112.278 20.4276C112.278 20.7033 112.051 20.928 111.765 20.928C111.48 20.928 111.253 20.7033 111.253 20.4276ZM111.131 20.4276C111.131 20.768 111.413 21.0471 111.765 21.0471C112.114 21.0471 112.4 20.768 112.4 20.4276C112.4 20.0872 112.114 19.8081 111.765 19.8081C111.413 19.8081 111.131 20.0872 111.131 20.4276Z" fill="#FFC124"/>
</g>
<defs>
<clipPath id="clip0_76_78">
<rect width="112" height="26" fill="white" transform="translate(0.399902)"/>
</clipPath>
</defs>
</svg>
